<svg xmlns="http://www.w3.org/2000/svg" width="209" height="96" fill="none" viewBox="0 0 209 96"><path fill="#E2E6EF" stroke="#E2E6EF" d="M0.5 5C0.5 2.51472 2.51472 0.5 5 0.5H58C60.4853 0.5 62.5 2.51472 62.5 5V62.3226H0.5V5Z" transform="translate(63) scale(-1 1)"/><path stroke="#E2E6EF" d="M0.5 0.5H62.5V28.7097C62.5 31.195 60.4853 33.2097 58 33.2097H5C2.51472 33.2097 0.5 31.195 0.5 28.7097V0.5Z" transform="translate(63 62) scale(-1 1)"/><rect width="30.252" height="5.516" fill="#E2E6EF" rx="2.758" transform="translate(9.21973 71.1943)"/><rect width="41.488" height="5.516" fill="#E2E6EF" fill-opacity=".5" rx="2.758" transform="translate(9.21973 79.4688)"/><path fill="#E2E6EF" stroke="#E2E6EF" d="M0.5 5C0.5 2.51472 2.51472 0.5 5 0.5H58C60.4853 0.5 62.5 2.51472 62.5 5V62.3226H0.5V5Z" transform="translate(136) scale(-1 1)"/><path stroke="#E2E6EF" d="M0.5 0.5H62.5V28.7097C62.5 31.195 60.4853 33.2097 58 33.2097H5C2.51472 33.2097 0.5 31.195 0.5 28.7097V0.5Z" transform="translate(136 62) scale(-1 1)"/><rect width="30.252" height="5.516" fill="#E2E6EF" rx="2.758" transform="translate(82.2197 71.1943)"/><rect width="41.488" height="5.516" fill="#E2E6EF" fill-opacity=".5" rx="2.758" transform="translate(82.2197 79.4688)"/><path fill="#E2E6EF" stroke="#E2E6EF" d="M0.5 5C0.5 2.51472 2.51472 0.5 5 0.5H58C60.4853 0.5 62.5 2.51472 62.5 5V62.3226H0.5V5Z" transform="translate(209) scale(-1 1)"/><path stroke="#E2E6EF" d="M0.5 0.5H62.5V28.7097C62.5 31.195 60.4853 33.2097 58 33.2097H5C2.51472 33.2097 0.5 31.195 0.5 28.7097V0.5Z" transform="translate(209 62) scale(-1 1)"/><rect width="30.252" height="5.516" fill="#E2E6EF" rx="2.758" transform="translate(155.22 71.1943)"/><rect width="41.488" height="5.516" fill="#E2E6EF" fill-opacity=".5" rx="2.758" transform="translate(155.22 79.4688)"/></svg>