<svg width="1440" height="722" viewBox="0 0 1440 722" fill="none" xmlns="http://www.w3.org/2000/svg">
<path d="M1590 714.681L1098.79 469.151L1098.17 470.889V469H265.415V470.889L264.69 469.208L83.1009 579.016H82.265V579.526L-141.01 714.568H-143V718.345H-141.798L-141.479 719.082L-140.261 718.345H506.021L505.225 720.357L508.091 722L509.572 718.345H1588.58V718.109L1588.76 718.194L1590 714.681ZM309.066 504.413H404.268L365.074 539.826H257.883L309.066 504.413ZM251.562 539.826H154.912L213.618 504.328V504.413H302.785L251.562 539.826ZM1160.97 504.338L1231.98 539.826H1123.23L1065.11 504.413H1160.95L1160.97 504.338ZM1053.88 579.016H932.221L903.863 543.603H1010.36L1053.88 579.016ZM1015.99 543.603H1122.46L1180.58 579.016H1059.57L1015.99 543.603ZM580.412 543.603H684.41L684.529 579.016H566.049L580.412 543.603ZM562.515 579.016H443.748L472.098 543.603H576.909L562.515 579.016ZM687.595 543.603H790.996L805.286 579.016H687.714L687.595 543.603ZM794.523 543.603H899.477L927.795 579.016H808.789L794.523 543.603ZM900.838 539.826L872.488 504.413H962.196L1005.72 539.826H900.838ZM896.451 539.826H793.002L778.672 504.413H868.085L896.451 539.826ZM789.467 539.826H687.563L687.443 504.413H775.153L789.467 539.826ZM684.378 539.826H581.916L596.247 504.413H684.227L684.378 539.826ZM578.381 539.826H475.068L503.458 504.413H592.775L578.381 539.826ZM470.681 539.826H370.305L409.514 504.413H499.047L470.681 539.826ZM467.656 543.603L439.297 579.016H326.956L366.149 543.603H467.656ZM436.272 582.794L407.914 618.207H283.567L322.752 582.794H436.272ZM440.667 582.794H560.962L546.632 618.207H412.341L440.667 582.794ZM564.489 582.794H684.514L684.633 618.207H550.135L564.489 582.794ZM687.698 582.794H806.783L821.114 618.207H687.841L687.698 582.794ZM810.302 582.794H930.812L959.17 618.207H824.624L810.302 582.794ZM962.196 621.984L992.067 659.286H841.176L826.121 621.984H962.196ZM966.59 621.984H1106.69L1152.52 659.286H996.477L966.59 621.984ZM963.565 618.207L935.207 582.794H1058.48L1102 618.207H963.565ZM1064.11 582.794H1186.71L1244.83 618.207H1107.67L1064.11 582.794ZM1193.68 582.794H1316.38V582.029L1388.75 618.207H1251.82L1193.68 582.794ZM1187.48 579.016L1129.37 543.603H1238.08V542.905L1310.33 579.016H1187.48ZM1116.22 539.826H1011.39L967.864 504.413H1058.21L1116.22 539.826ZM963.143 500.636L928.91 472.777H1007.73L1007.41 473.514L1051.99 500.636H963.143ZM957.514 500.636H869.423L847.131 472.777H923.297L957.514 500.636ZM865.028 500.636H777.143L765.902 472.777H843.405L843.087 473.136L865.028 500.636ZM773.616 500.636H687.419L687.324 472.777H762.367L773.616 500.636ZM684.235 500.636H597.799L609.096 472.777H684.179L684.235 500.636ZM594.272 500.636H506.443L528.464 473.136L528.146 472.777H605.569L594.272 500.636ZM502.048 500.636H413.678L443.931 473.335L443.573 472.777H524.404L502.048 500.636ZM408.416 500.636H314.472L353.745 473.467L353.403 472.777H439.234L408.416 500.636ZM360.863 543.603L321.669 579.016H201.215L252.39 543.603H360.863ZM317.49 582.794L278.296 618.207H144.546L195.721 582.794H317.49ZM138.257 618.207H25.2542L83.8174 582.794H189.432L138.257 618.207ZM132.795 621.984L78.8814 659.286H-42.6796L20.119 621.314V621.984H132.795ZM139.117 621.984H274.172L232.893 659.286H85.2584L139.117 621.984ZM228.657 663.063L171.702 714.53H5.39856L79.7811 663.063H228.657ZM233.912 663.063H371.993L330.777 714.53H176.957L233.912 663.063ZM238.091 659.286L279.371 621.984H404.881L375.01 659.286H238.091ZM409.26 621.984H545.039L529.913 659.286H379.389L409.26 621.984ZM548.582 621.984H684.625L684.752 659.286H533.488L548.582 621.984ZM687.81 621.984H822.594L837.649 659.286H687.977L687.81 621.984ZM839.17 663.063L859.949 714.53H688.16L687.993 663.063H839.17ZM842.705 663.063H995.092L1036.3 714.53H863.476L842.705 663.063ZM999.479 663.063H1157.11L1220.36 714.53H1040.69L999.479 663.063ZM1162.76 663.063H1318.4L1402.83 714.53H1226.04L1162.76 663.063ZM1158.12 659.286L1112.27 621.984H1251.02L1312.21 659.286H1158.12ZM1257.97 621.984H1395.14V621.399L1470.94 659.286H1319.21L1257.97 621.984ZM1153.58 500.636H1058.94L1013.24 472.777H1097.85L1153.58 500.636ZM265.797 472.777H348.467L308.199 500.636H219.725L265.797 472.777ZM151.154 542.102V543.603H246.101L194.925 579.016H90.099L151.154 542.102ZM-48.8975 663.063H73.4597L-0.922653 714.53H-134.012L-48.8975 663.063ZM335.204 714.53L376.411 663.063H528.432L507.558 714.53H335.204ZM531.959 663.063H684.816L684.983 714.53H511.108L531.959 663.063ZM1409.84 714.53L1325.41 663.063H1473.94V660.768L1581.5 714.53H1409.84Z" fill="url(#paint0_linear)" fill-opacity="0.8"/>
<path d="M-190 -4.55179L301.212 240.978L301.833 239.241V241.13H1134.59V239.241L1135.31 240.922L1316.9 131.113H1317.74V130.603L1541.01 -4.43848H1543V-8.21587H1541.8L1541.48 -8.95236L1540.26 -8.21587H893.979L894.775 -10.2273L891.909 -11.8705L890.428 -8.21587H-188.583V-7.97978L-188.758 -8.06473L-190 -4.55179ZM1090.93 205.717H995.732L1034.93 170.304H1142.12L1090.93 205.717ZM1148.44 170.304H1245.09L1186.38 205.801V205.717H1097.21L1148.44 170.304ZM239.026 205.792L168.02 170.304H276.771L334.889 205.717H239.05L239.026 205.792ZM346.122 131.113H467.779L496.137 166.526H389.638L346.122 131.113ZM384.01 166.526H277.535L219.418 131.113H340.43L384.01 166.526ZM819.588 166.526H715.59L715.471 131.113H833.951L819.588 166.526ZM837.485 131.113H956.252L927.902 166.526H823.091L837.485 131.113ZM712.405 166.526H609.004L594.714 131.113H712.286L712.405 166.526ZM605.477 166.526H500.523L472.205 131.113H591.211L605.477 166.526ZM499.162 170.304L527.512 205.717H437.804L394.28 170.304H499.162ZM503.549 170.304H606.998L621.328 205.717H531.915L503.549 170.304ZM610.533 170.304H712.437L712.557 205.717H624.847L610.533 170.304ZM715.622 170.304H818.084L803.753 205.717H715.773L715.622 170.304ZM821.619 170.304H924.932L896.542 205.717H807.225L821.619 170.304ZM929.319 170.304H1029.7L990.486 205.717H900.953L929.319 170.304ZM932.344 166.526L960.703 131.113H1073.04L1033.85 166.526H932.344ZM963.728 127.336L992.086 91.9227H1116.43L1077.25 127.336H963.728ZM959.333 127.336H839.038L853.368 91.9227H987.659L959.333 127.336ZM835.511 127.336H715.486L715.367 91.9227H849.865L835.511 127.336ZM712.302 127.336H593.217L578.886 91.9227H712.159L712.302 127.336ZM589.698 127.336H469.188L440.83 91.9227H575.376L589.698 127.336ZM437.804 88.1453L407.933 50.8436H558.824L573.879 88.1453H437.804ZM433.41 88.1453H293.315L247.481 50.8436H403.523L433.41 88.1453ZM436.435 91.9227L464.793 127.336H341.52L298.004 91.9227H436.435ZM335.892 127.336H213.288L155.17 91.9227H292.328L335.892 127.336ZM206.322 127.336H83.6218V128.101L11.2457 91.9227H148.18L206.322 127.336ZM212.516 131.113L270.633 166.526H161.921V167.225L89.6725 131.113H212.516ZM283.777 170.304H388.611L432.136 205.717H341.791L283.777 170.304ZM436.857 209.494L471.09 237.352H392.274L392.592 236.616L348.009 209.494H436.857ZM442.486 209.494H530.577L552.869 237.352H476.703L442.486 209.494ZM534.972 209.494H622.857L634.098 237.352H556.595L556.913 236.993L534.972 209.494ZM626.384 209.494H712.581L712.676 237.352H637.633L626.384 209.494ZM715.765 209.494H802.201L790.904 237.352H715.821L715.765 209.494ZM805.728 209.494H893.557L871.536 236.993L871.854 237.352H794.431L805.728 209.494ZM897.952 209.494H986.322L956.069 236.795L956.427 237.352H875.596L897.952 209.494ZM991.584 209.494H1085.53L1046.25 236.663L1046.6 237.352H960.766L991.584 209.494ZM1039.14 166.526L1078.33 131.113H1198.79L1147.61 166.526H1039.14ZM1082.51 127.336L1121.7 91.9227H1255.45L1204.28 127.336H1082.51ZM1261.74 91.9227H1374.75L1316.18 127.336H1210.57L1261.74 91.9227ZM1267.2 88.1453L1321.12 50.8436H1442.68L1379.88 88.8158V88.1453H1267.2ZM1260.88 88.1453H1125.83L1167.11 50.8436H1314.74L1260.88 88.1453ZM1171.34 47.0662L1228.3 -4.40067H1394.6L1320.22 47.0662H1171.34ZM1166.09 47.0662H1028.01L1069.22 -4.40067H1223.04L1166.09 47.0662ZM1161.91 50.8436L1120.63 88.1453H995.119L1024.99 50.8436H1161.91ZM990.74 88.1453H854.961L870.087 50.8436H1020.61L990.74 88.1453ZM851.418 88.1453H715.375L715.248 50.8436H866.512L851.418 88.1453ZM712.19 88.1453H577.406L562.351 50.8436H712.023L712.19 88.1453ZM560.83 47.0662L540.051 -4.40067H711.84L712.007 47.0662H560.83ZM557.295 47.0662H404.908L363.7 -4.40067H536.524L557.295 47.0662ZM400.521 47.0662H242.888L179.635 -4.40067H359.314L400.521 47.0662ZM237.243 47.0662H81.5997L-2.82971 -4.40067H173.959L237.243 47.0662ZM241.885 50.8436L287.726 88.1453H148.976L87.7858 50.8436H241.885ZM142.026 88.1453H4.86084V88.7308L-70.9387 50.8436H80.7877L142.026 88.1453ZM246.423 209.494H341.059L386.764 237.352H302.152L246.423 209.494ZM1134.2 237.352H1051.53L1091.8 209.494H1180.28L1134.2 237.352ZM1248.85 168.028V166.526H1153.9L1205.07 131.113H1309.9L1248.85 168.028ZM1448.9 47.0662H1326.54L1400.92 -4.40067H1534.01L1448.9 47.0662ZM1064.8 -4.40067L1023.59 47.0662H871.568L892.442 -4.40067H1064.8ZM868.041 47.0662H715.184L715.017 -4.40067H888.892L868.041 47.0662ZM-9.83569 -4.40067L74.5939 47.0662H-73.9402V49.3611L-181.497 -4.40067H-9.83569Z" fill="url(#paint1_linear)" fill-opacity="0.8"/>
<defs>
<linearGradient id="paint0_linear" x1="724" y1="441.685" x2="723.295" y2="721.999" gradientUnits="userSpaceOnUse">
<stop stop-color="#FCFFFF"/>
<stop offset="0.0001" stop-color="#2F3232" stop-opacity="0"/>
<stop offset="0.853142" stop-color="#2F3232"/>
</linearGradient>
<linearGradient id="paint1_linear" x1="676" y1="268.445" x2="676.705" y2="-11.87" gradientUnits="userSpaceOnUse">
<stop stop-color="#FCFFFF"/>
<stop offset="0.0001" stop-color="#2F3232" stop-opacity="0"/>
<stop offset="0.853142" stop-color="#2F3232"/>
</linearGradient>
</defs>
</svg>
